<?xml version="1.0" standalone="no"?>
<!DOCTYPE svg PUBLIC "-//W3C//DTD SVG 20010904//EN"
 "http://www.w3.org/TR/2001/REC-SVG-20010904/DTD/svg10.dtd">
<svg version="1.0" xmlns="http://www.w3.org/2000/svg"
 width="700.000000pt" height="700.000000pt" viewBox="0 0 700.000000 700.000000"
 preserveAspectRatio="xMidYMid meet">
<metadata>
Created by potrace 1.14, written by Peter Selinger 2001-2017
</metadata>
<g transform="translate(0.000000,700.000000) scale(0.100000,-0.100000)"
fill="#000000" stroke="none">
<path d="M3280 6994 c-19 -2 -84 -9 -145 -14 -578 -56 -1180 -283 -1660 -625
-237 -169 -531 -446 -709 -670 -416 -521 -673 -1147 -748 -1820 -17 -154 -17
-585 0 -730 69 -588 254 -1099 567 -1570 126 -189 242 -332 410 -504 580 -595
1295 -943 2140 -1043 145 -17 576 -17 730 0 822 91 1556 447 2131 1034 203
206 348 390 487 618 274 449 432 915 499 1465 16 135 16 591 0 730 -100 846
-447 1557 -1043 2141 -555 542 -1249 874 -2029 970 -117 15 -553 27 -630 18z
m-929 -1259 c359 -47 649 -180 842 -384 162 -172 263 -378 303 -620 24 -150
15 -425 -19 -571 -56 -238 -160 -425 -318 -576 -137 -130 -314 -219 -534 -270
-172 -39 -278 -44 -932 -44 l-633 0 0 25 0 25 110 0 110 0 0 765 c0 421 2 765
5 765 3 0 32 -20 65 -44 173 -127 426 -118 598 22 l52 42 0 -776 0 -776 108 7
c131 8 179 19 259 57 146 71 247 218 302 440 69 277 88 719 45 1063 -54 439
-222 682 -524 762 -102 27 -379 24 -485 -5 -172 -48 -300 -133 -352 -235 -50
-99 -4 -161 48 -64 60 112 131 152 269 152 75 0 91 -4 140 -30 64 -35 122
-106 142 -174 7 -25 13 -77 12 -116 -1 -96 -30 -160 -105 -229 -74 -69 -134
-91 -249 -91 -76 0 -93 4 -152 33 -198 97 -272 338 -168 548 71 144 267 255
527 299 106 18 403 18 534 0z m2767 -32 c40 -111 808 -2280 824 -2325 l20 -58
64 0 c62 0 64 -1 64 -25 l0 -25 -432 0 -433 0 -39 108 c-129 360 -331 664
-550 829 -85 65 -192 121 -204 108 -17 -18 -231 -642 -243 -708 -9 -50 -9 -75
0 -113 29 -113 96 -151 293 -167 125 -10 128 -11 128 -34 l0 -23 -445 0 -445
0 0 29 c0 28 0 28 78 34 154 10 233 85 315 302 67 175 249 706 245 711 -3 2
-36 11 -74 19 -147 31 -336 10 -438 -50 -83 -49 -162 -151 -141 -184 14 -23
44 -9 85 40 50 60 90 79 160 79 89 0 160 -44 203 -125 16 -31 21 -59 21 -120
1 -70 -2 -86 -27 -128 -89 -151 -308 -182 -437 -61 -62 58 -92 127 -98 224 -5
100 19 166 94 248 103 114 267 170 464 158 52 -3 122 -12 155 -20 33 -8 61
-13 63 -11 2 2 90 253 196 559 107 305 205 574 219 598 57 97 137 140 294 157
6 0 15 -11 21 -26z m-6 -2646 c67 -33 133 -104 173 -184 39 -80 43 -165 15
-278 -23 -93 -49 -158 -503 -1275 l-275 -675 -146 0 -147 0 -286 713 c-158
391 -289 712 -293 712 -3 0 -127 -294 -275 -652 -148 -359 -281 -681 -296
-715 l-28 -63 -139 0 -139 0 -463 1185 -464 1185 -103 0 -103 0 0 25 0 25 650
0 650 0 0 -25 0 -25 -141 0 c-80 0 -139 -4 -137 -9 2 -5 133 -365 293 -800
282 -771 290 -791 316 -791 24 0 34 19 187 382 l161 381 -157 416 -158 416
-102 3 c-101 3 -102 3 -102 27 l0 25 650 0 650 0 0 -25 0 -25 -141 0 c-130 0
-141 -1 -137 -17 4 -15 499 -1369 560 -1531 18 -48 23 -53 46 -50 25 3 37 28
195 403 300 715 327 790 327 902 0 102 -45 193 -127 253 -42 31 -106 52 -129
43 -29 -11 -10 -47 39 -74 113 -61 152 -131 145 -257 -11 -183 -126 -281 -319
-270 -100 6 -170 39 -237 113 -146 160 -107 417 78 515 70 38 135 50 245 47
97 -2 117 -5 167 -30z"/>
<path d="M4582 4757 c-30 -83 -71 -200 -91 -259 l-38 -107 81 -39 c149 -71
286 -190 399 -344 27 -38 51 -68 53 -68 2 0 -5 21 -15 48 -10 26 -87 244 -171
485 -85 240 -156 437 -159 437 -4 0 -30 -69 -59 -153z"/>
</g>
</svg>
