<svg width="400" height="400" viewBox="0 0 400 400" fill="none" xmlns="http://www.w3.org/2000/svg">
<g clip-path="url(#clip0_2244_1532)">
<path d="M373.865 150.533L296.065 72.7328C292.326 69.0682 287.3 67.0156 282.065 67.0156C276.829 67.0156 271.803 69.0682 268.065 72.7328L257.198 83.5994C253.704 87.1769 251.678 91.9333 251.517 96.931C251.357 101.929 253.074 106.805 256.331 110.599C251.531 114.63 245.952 117.628 239.941 119.406C233.931 121.184 227.618 121.704 221.398 120.933C209.757 119.537 197.964 121.65 187.531 126.999H187.065L160.398 123.599C157.415 123.234 154.643 121.871 152.531 119.733L143.665 110.866C146.977 107.08 148.741 102.185 148.605 97.156C148.469 92.1272 146.443 87.3343 142.931 83.7328L132.065 72.8661C128.326 69.2016 123.3 67.149 118.065 67.149C112.829 67.149 107.803 69.2016 104.065 72.8661L26.1312 150.533C22.4667 154.271 20.4141 159.298 20.4141 164.533C20.4141 169.768 22.4667 174.794 26.1312 178.533L36.9979 189.399C40.5994 192.912 45.3923 194.938 50.4211 195.074C55.4499 195.21 60.3452 193.445 64.1312 190.133L81.1979 207.133C83.7949 209.799 85.6754 213.078 86.6645 216.666C90.1826 229.715 97.0815 241.604 106.665 251.133C104.869 254.505 103.978 258.284 104.076 262.103C104.175 265.922 105.26 269.651 107.227 272.926C109.193 276.201 111.974 278.912 115.298 280.794C118.623 282.676 122.378 283.665 126.198 283.666C126.18 286.586 126.742 289.481 127.852 292.183C128.961 294.884 130.596 297.338 132.661 299.403C134.726 301.468 137.18 303.103 139.881 304.212C142.583 305.322 145.478 305.884 148.398 305.866C148.461 311.784 150.857 317.438 155.065 321.599C158.418 324.961 162.768 327.147 167.466 327.832C172.164 328.517 176.958 327.664 181.131 325.399L182.331 326.599C184.95 329.238 188.193 331.173 191.759 332.223C195.326 333.274 199.1 333.406 202.731 332.608C206.362 331.81 209.733 330.107 212.53 327.658C215.327 325.209 217.46 322.093 218.731 318.599L221.465 321.333C223.522 323.403 225.968 325.046 228.662 326.167C231.357 327.288 234.246 327.865 237.165 327.865C240.083 327.865 242.972 327.288 245.667 326.167C248.361 325.046 250.807 323.403 252.865 321.333C255.068 319.066 256.732 316.332 257.731 313.333L260.998 316.599C265.162 320.763 270.809 323.103 276.698 323.103C282.587 323.103 288.234 320.763 292.398 316.599C296.562 312.436 298.901 306.788 298.901 300.899C298.901 295.011 296.562 289.363 292.398 285.199L289.131 281.933C292.125 280.866 294.838 279.134 297.065 276.866C299.161 274.829 300.83 272.394 301.975 269.704C303.12 267.014 303.717 264.123 303.731 261.199C303.715 257.688 302.846 254.233 301.198 251.133L302.465 249.799C311.127 241.222 317.005 230.233 319.331 218.266C321.156 208.799 325.804 200.107 332.665 193.333L336.065 189.933C339.851 193.245 344.746 195.01 349.775 194.874C354.803 194.738 359.596 192.712 363.198 189.199L374.065 178.333C377.643 174.578 379.622 169.579 379.585 164.392C379.547 159.206 377.496 154.236 373.865 150.533ZM46.1979 179.999L35.3312 169.399C34.0895 168.15 33.3926 166.461 33.3926 164.699C33.3926 162.938 34.0895 161.249 35.3312 159.999L113.331 81.9328C113.954 81.2772 114.704 80.7552 115.535 80.3984C116.365 80.0417 117.26 79.8578 118.165 79.8578C119.069 79.8578 119.964 80.0417 120.794 80.3984C121.625 80.7552 122.375 81.2772 122.998 81.9328L133.331 92.7994C133.987 93.4222 134.509 94.1719 134.866 95.0028C135.222 95.8337 135.406 96.7285 135.406 97.6328C135.406 98.537 135.222 99.4318 134.866 100.263C134.509 101.094 133.987 101.843 133.331 102.466L55.8645 179.999C55.2417 180.655 54.4921 181.177 53.6612 181.534C52.8303 181.89 51.9355 182.074 51.0312 182.074C50.127 182.074 49.2322 181.89 48.4012 181.534C47.5703 181.177 46.8207 180.655 46.1979 179.999ZM119.998 268.133C119.103 267.268 118.391 266.233 117.904 265.087C117.418 263.942 117.168 262.71 117.168 261.466C117.168 260.222 117.418 258.99 117.904 257.845C118.391 256.699 119.103 255.664 119.998 254.799C121.731 253.093 124.066 252.137 126.498 252.137C128.93 252.137 131.264 253.093 132.998 254.799C133.873 255.653 134.572 256.671 135.054 257.794C135.536 258.918 135.793 260.126 135.808 261.348C135.824 262.571 135.598 263.785 135.145 264.92C134.691 266.056 134.018 267.091 133.165 267.966C132.311 268.842 131.293 269.54 130.17 270.023C129.046 270.505 127.838 270.761 126.616 270.776C125.393 270.792 124.179 270.566 123.044 270.113C121.908 269.659 120.873 268.986 119.998 268.133ZM142.198 290.333C140.891 289.038 140.003 287.381 139.647 285.577C139.291 283.772 139.485 281.902 140.202 280.208C140.92 278.514 142.129 277.075 143.673 276.075C145.217 275.075 147.025 274.561 148.865 274.599C150.099 274.563 151.328 274.78 152.475 275.239C153.622 275.698 154.662 276.388 155.531 277.266C156.418 278.135 157.123 279.172 157.604 280.317C158.085 281.462 158.333 282.691 158.333 283.933C158.333 285.174 158.085 286.404 157.604 287.548C157.123 288.693 156.418 289.73 155.531 290.599C154.635 291.513 153.561 292.233 152.376 292.717C151.191 293.2 149.92 293.437 148.64 293.412C147.361 293.387 146.1 293.101 144.935 292.572C143.77 292.042 142.725 291.28 141.865 290.333H142.198ZM164.398 312.533C163.494 311.673 162.775 310.639 162.283 309.493C161.791 308.347 161.538 307.113 161.538 305.866C161.538 304.619 161.791 303.385 162.283 302.239C162.775 301.093 163.494 300.059 164.398 299.199C166.18 297.463 168.577 296.504 171.065 296.533C172.567 296.564 174.039 296.963 175.352 297.695C176.665 298.427 177.779 299.469 178.596 300.731C179.413 301.992 179.908 303.435 180.038 304.932C180.169 306.43 179.931 307.936 179.344 309.32C178.758 310.704 177.841 311.923 176.675 312.871C175.508 313.819 174.127 314.466 172.652 314.757C171.178 315.048 169.654 314.973 168.215 314.538C166.776 314.104 165.466 313.324 164.398 312.266V312.533ZM288.265 267.933C286.483 269.675 284.09 270.651 281.598 270.651C279.106 270.651 276.713 269.675 274.931 267.933L207.265 199.999C206.73 199.155 206.012 198.442 205.164 197.913C204.316 197.384 203.36 197.052 202.367 196.943C201.374 196.833 200.369 196.947 199.426 197.278C198.483 197.609 197.626 198.148 196.92 198.855C196.213 199.561 195.675 200.418 195.344 201.361C195.013 202.304 194.898 203.309 195.008 204.302C195.118 205.295 195.449 206.251 195.978 207.099C196.508 207.946 197.221 208.664 198.065 209.199L283.198 294.599C284.076 295.472 284.77 296.511 285.239 297.656C285.708 298.801 285.944 300.029 285.931 301.266C285.955 302.505 285.725 303.736 285.255 304.883C284.785 306.029 284.085 307.067 283.198 307.933C281.464 309.639 279.13 310.595 276.698 310.595C274.266 310.595 271.931 309.639 270.198 307.933L185.065 222.466C183.785 221.655 182.268 221.304 180.762 221.47C179.256 221.637 177.852 222.312 176.781 223.383C175.71 224.454 175.036 225.858 174.869 227.364C174.702 228.869 175.053 230.387 175.865 231.666L243.531 299.266C245.299 301.034 246.293 303.432 246.293 305.933C246.293 308.433 245.299 310.831 243.531 312.599C241.763 314.368 239.365 315.361 236.865 315.361C234.364 315.361 231.966 314.368 230.198 312.599L162.865 244.666C161.585 243.855 160.068 243.504 158.562 243.671C157.056 243.837 155.652 244.512 154.581 245.583C153.51 246.654 152.836 248.058 152.669 249.563C152.502 251.069 152.853 252.587 153.665 253.866L204.331 304.533C205.207 305.408 205.901 306.448 206.375 307.591C206.849 308.735 207.093 309.961 207.093 311.199C207.093 312.438 206.849 313.664 206.375 314.807C205.901 315.951 205.207 316.991 204.331 317.866C203.456 318.742 202.416 319.436 201.273 319.91C200.129 320.384 198.903 320.628 197.665 320.628C196.426 320.628 195.2 320.384 194.057 319.91C192.913 319.436 191.873 318.742 190.998 317.866L189.798 316.666C191.618 313.301 192.529 309.52 192.442 305.695C192.354 301.871 191.271 298.135 189.299 294.857C187.327 291.579 184.534 288.872 181.196 287.003C177.858 285.134 174.09 284.168 170.265 284.199C170.301 281.283 169.75 278.39 168.645 275.691C167.54 272.992 165.902 270.543 163.831 268.491C161.76 266.438 159.296 264.823 156.587 263.742C153.879 262.661 150.98 262.137 148.065 262.199C148.159 258.342 147.241 254.527 145.401 251.135C143.561 247.744 140.864 244.894 137.578 242.87C134.293 240.846 130.534 239.719 126.678 239.602C122.821 239.484 119 240.38 115.598 242.199C107.677 234.195 102.018 224.235 99.1979 213.333C97.6792 207.516 94.6155 202.217 90.3312 197.999L73.3312 181.066L134.398 119.999L143.198 128.799C147.362 132.937 152.775 135.585 158.598 136.333L172.331 138.066L139.531 170.866C137.075 173.155 135.105 175.915 133.738 178.981C132.372 182.048 131.637 185.359 131.578 188.715C131.519 192.072 132.136 195.406 133.394 198.519C134.651 201.632 136.523 204.46 138.897 206.834C141.271 209.208 144.098 211.079 147.211 212.337C150.324 213.594 153.659 214.212 157.015 214.152C160.372 214.093 163.683 213.359 166.749 211.992C169.816 210.626 172.576 208.656 174.865 206.199L196.931 184.133C198.908 182.198 201.295 180.733 203.914 179.844C206.533 178.956 209.319 178.667 212.065 178.999L287.931 254.866C288.8 255.742 289.484 256.783 289.942 257.929C290.4 259.074 290.623 260.299 290.598 261.533C290.571 263.931 289.615 266.225 287.931 267.933H288.265ZM306.665 215.933C304.797 225.384 300.155 234.065 293.331 240.866L292.865 241.333L241.331 189.933C247.869 191.628 254.579 192.568 261.331 192.733C262.195 192.798 263.063 192.682 263.879 192.391C264.696 192.101 265.442 191.642 266.07 191.045C266.698 190.449 267.194 189.727 267.526 188.927C267.858 188.127 268.019 187.266 267.998 186.399C267.998 184.631 267.296 182.936 266.045 181.685C264.795 180.435 263.099 179.733 261.331 179.733C248.69 179.393 236.318 176.008 225.265 169.866C219.273 166.491 212.347 165.154 205.53 166.056C198.713 166.958 192.373 170.05 187.465 174.866L165.398 196.933C164.355 198.3 163.031 199.426 161.515 200.237C159.999 201.047 158.327 201.523 156.611 201.631C154.896 201.739 153.177 201.477 151.571 200.863C149.965 200.249 148.51 199.298 147.305 198.072C146.099 196.847 145.17 195.377 144.582 193.762C143.993 192.147 143.759 190.424 143.894 188.71C144.029 186.997 144.531 185.332 145.366 183.829C146.2 182.326 147.348 181.02 148.731 179.999L182.065 146.666C186.997 141.784 192.975 138.088 199.548 135.859C206.12 133.63 213.113 132.925 219.998 133.799C228.109 134.796 236.34 134.083 244.159 131.706C251.978 129.329 259.213 125.342 265.398 119.999L326.665 181.066L323.331 184.333C314.746 192.967 308.942 203.972 306.665 215.933ZM364.865 169.266L353.798 179.999C353.175 180.655 352.425 181.177 351.594 181.534C350.764 181.89 349.869 182.074 348.965 182.074C348.06 182.074 347.165 181.89 346.335 181.534C345.504 181.177 344.754 180.655 344.131 179.999L266.665 102.466C266.009 101.843 265.487 101.094 265.13 100.263C264.773 99.4318 264.59 98.537 264.59 97.6328C264.59 96.7285 264.773 95.8337 265.13 95.0028C265.487 94.1719 266.009 93.4222 266.665 92.7994L277.531 81.9328C278.154 81.2772 278.904 80.7552 279.735 80.3984C280.565 80.0417 281.46 79.8578 282.365 79.8578C283.269 79.8578 284.164 80.0417 284.994 80.3984C285.825 80.7552 286.575 81.2772 287.198 81.9328L364.665 159.999C365.906 161.249 366.603 162.938 366.603 164.699C366.603 166.461 365.906 168.15 364.665 169.399L364.865 169.266Z" fill="#28375A"/>
</g>
<defs>
<clipPath id="clip0_2244_1532">
<rect width="400" height="400" fill="white"/>
</clipPath>
</defs>
</svg>
