<svg width="400" height="400" viewBox="0 0 400 400" fill="none" xmlns="http://www.w3.org/2000/svg">
<path d="M197.522 200.325H203.453C223.074 200.325 239.037 184.363 239.037 164.743C239.037 161.468 236.382 158.813 233.106 158.813H227.316C219.114 158.813 212.18 153.278 210.054 145.747C217.241 143.913 223.779 140.025 228.88 134.475C235.43 127.348 239.037 118.091 239.037 108.406C239.037 98.7212 235.43 89.4635 228.88 82.3372C222.686 75.5981 214.377 71.3111 205.358 70.1719C204.76 69.9697 197.522 69.8594 197.522 69.8594C161.55 69.8594 132.285 99.1227 132.285 135.092C132.285 171.061 161.55 200.325 197.522 200.325ZM197.522 81.7198C197.522 81.7198 202.665 81.8129 202.921 81.8361C216.748 83.0826 227.176 94.5054 227.176 108.406C227.176 122.306 216.748 133.729 202.921 134.976C202.667 134.999 200.065 135.087 199.847 135.084C190.929 134.874 182.993 130.345 178.279 123.231H182.696C194.238 123.231 205.076 118.124 212.432 109.217C214.517 106.692 214.161 102.954 211.635 100.869C209.11 98.7829 205.372 99.1387 203.286 101.665C198.191 107.833 190.686 111.371 182.696 111.371H169.114C167.256 111.371 165.505 112.242 164.384 113.724C163.264 115.206 162.902 117.128 163.408 118.916C167.907 134.816 181.753 145.9 198.129 146.882C200.856 160.163 212.449 170.25 226.428 170.661C223.793 180.887 214.491 188.464 203.453 188.464H197.522C168.091 188.464 144.146 164.521 144.146 135.092C144.146 105.663 168.091 81.7198 197.522 81.7198Z" fill="white"/>
<path d="M286.486 146.954C284.589 146.954 282.805 147.862 281.689 149.396L248.197 195.444C240.572 205.927 228.28 212.186 215.318 212.186C212.042 212.186 209.387 214.841 209.387 218.116C209.387 221.392 212.042 224.047 215.318 224.047C232.063 224.047 247.94 215.962 257.789 202.42L289.339 159.043C297.798 160.412 304.278 167.766 304.278 176.605V330.791H291.243L268.553 228.69C267.842 225.493 264.676 223.477 261.477 224.188C258.279 224.898 256.263 228.065 256.974 231.263L280.697 338.007C281.299 340.721 283.706 342.651 286.486 342.651H310.208C313.484 342.651 316.139 339.996 316.139 336.721V176.605C316.139 160.255 302.837 146.954 286.486 146.954Z" fill="white"/>
<path d="M233.008 240.746C232.405 237.526 229.304 235.407 226.086 236.01C222.867 236.613 220.746 239.712 221.35 242.931L236.508 323.768C236.955 326.15 235.907 327.848 235.243 328.648C234.579 329.449 233.102 330.791 230.679 330.791H102.501C95.7915 330.791 89.9443 327.2 86.8594 321.184C85.5115 318.556 84.8396 315.767 84.8313 312.999C85.0934 312.991 85.359 312.966 85.6253 312.922C125.77 306.303 165.59 284.887 197.75 252.62C200.062 250.3 200.056 246.545 197.736 244.233C195.416 241.921 191.661 241.928 189.349 244.247C160.639 273.054 125.601 292.696 90.0493 300.04L157.897 205.652C159.808 202.993 159.202 199.287 156.543 197.375C153.883 195.465 150.177 196.07 148.265 198.73L78.6134 295.628C72.0652 304.738 71.1805 316.605 76.3042 326.597C81.3822 336.5 91.4203 342.653 102.5 342.653H230.679C235.989 342.653 240.979 340.31 244.37 336.224C247.761 332.138 249.144 326.802 248.166 321.584L233.008 240.746Z" fill="white"/>
<path d="M289.448 58H274.621C261.54 58 250.898 68.6412 250.898 81.7209V96.5465C250.898 117.801 268.192 135.093 289.448 135.093C310.704 135.093 327.997 117.801 327.997 96.5465C327.997 75.292 310.704 58 289.448 58ZM274.621 69.8605H289.448C301.029 69.8605 310.911 77.2739 314.595 87.6049C314.047 87.6358 313.498 87.6512 312.95 87.6512H287.274C278.134 87.6512 269.632 83.446 264.078 76.2894C266.053 72.4745 270.038 69.8605 274.621 69.8605ZM289.448 123.233C274.732 123.233 262.76 111.261 262.76 96.5465V91.443C269.749 96.6207 278.293 99.5116 287.274 99.5116H312.95C313.961 99.5116 314.974 99.4743 315.985 99.3996C314.556 112.778 303.2 123.233 289.448 123.233Z" fill="white"/>
</svg>
