<svg width="149" height="141" viewBox="0 0 149 141" fill="none" xmlns="http://www.w3.org/2000/svg">
<path d="M78.5581 37.0113C79.7845 37.3697 86.8297 34.2703 88.7278 32.656C89.674 31.8514 90.4545 30.8959 90.7982 29.4351C91.4056 26.8487 89.9379 24.137 87.3883 23.3921C84.8793 22.659 82.4702 24.9911 82.0938 24.8811C81.7643 24.7848 81.0545 21.5415 78.4331 20.7756C75.8831 20.0305 73.1864 21.5251 72.306 24.0321C71.8088 25.448 71.9524 26.6783 72.3167 27.8611C73.0426 30.2238 77.3579 36.6607 78.5581 37.0113Z" fill="#E887AF"/>
<path d="M99.702 49.7394C99.0743 51.5266 99.2561 53.0799 99.7155 54.5723C100.632 57.5545 106.079 65.6801 107.595 66.123C109.143 66.5752 118.036 62.663 120.432 60.6251C121.626 59.6095 122.612 58.4037 123.045 56.5596C123.812 53.2949 121.959 49.8723 118.74 48.9317C115.573 48.0064 112.532 50.9501 112.057 50.8112C111.641 50.6896 110.745 46.5958 107.435 45.6288C104.217 44.6884 100.813 46.5751 99.702 49.7394Z" fill="#E887AF"/>
<path d="M109.147 23.9719C110.138 24.2615 115.833 21.7563 117.368 20.4512C118.132 19.8004 118.764 19.0288 119.041 17.8477C119.532 15.7568 118.345 13.5652 116.284 12.9631C114.256 12.3705 112.309 14.2556 112.004 14.1666C111.738 14.0888 111.164 11.4671 109.045 10.8479C106.983 10.2455 104.803 11.4534 104.092 13.4801C103.69 14.6247 103.807 15.6194 104.1 16.5748C104.688 18.4849 108.176 23.6884 109.147 23.9719Z" fill="#E887AF"/>
<path d="M136.817 99.1173C136.939 88.4429 128.814 79.0923 118.161 78.3995C107.681 77.7177 100.271 88.9691 98.6982 88.8672C97.322 88.7779 91.7051 76.6792 80.754 75.9667C70.1023 75.2739 60.8335 83.4932 59.5726 94.0934C58.8604 100.081 60.4998 104.78 62.9604 109.1C67.8751 117.73 90.4244 139.202 95.4382 139.528C100.56 139.861 125.482 121.549 131.513 113.559C134.521 109.576 136.747 105.147 136.817 99.1173Z" fill="#E887AF"/>
<path d="M56.954 112.522C54.6337 108.447 51.6687 102.02 52.7081 93.277C53.5267 86.3984 56.8686 80.1092 62.1199 75.5658C67.4857 70.9231 74.2641 68.615 81.2055 69.0662C82.8283 69.1717 84.4459 69.4574 86.0135 69.9155C92.0611 71.6824 96.1099 75.4314 99.0638 78.8015C99.2903 79.0533 99.5184 78.9368 99.4958 78.8141C98.0263 70.7666 93.7622 63.4772 86.1983 59.3098C73.3164 52.213 58.2434 61.8237 56.6245 60.932C54.7746 59.913 54.5251 41.8594 42.1974 35.0673C29.6671 28.1639 13.7441 32.8605 6.18035 45.0038C1.90763 51.8635 1.22777 58.472 1.7497 65.14C2.79647 78.5155 17.728 117.178 23.7534 120.498C27.4565 122.538 43.7883 120.432 59.1751 116.853C59.5555 116.729 59.5975 116.45 59.4342 116.236C58.3848 114.863 57.6556 113.754 56.954 112.522Z" fill="#E887AF"/>
</svg>
